<?xml version="1.0" encoding="utf-8"?>
<!-- Generator: Adobe Illustrator 13.0.0, SVG Export Plug-In  -->
<!DOCTYPE svg PUBLIC "-//W3C//DTD SVG 1.0//EN" "http://www.w3.org/TR/2001/REC-SVG-20010904/DTD/svg10.dtd" [
	<!ENTITY ns_flows "http://ns.adobe.com/Flows/1.0/">
]>
<svg version="1.0"
	 xmlns="http://www.w3.org/2000/svg" xmlns:xlink="http://www.w3.org/1999/xlink" xmlns:a="http://ns.adobe.com/AdobeSVGViewerExtensions/3.0/"
	 x="0px" y="0px" width="48px" height="48px" viewBox="-3 -9.1 48 48" enable-background="new -3 -9.1 48 48" xml:space="preserve">
<defs>
</defs>
<linearGradient id="SVGID_1_" gradientUnits="userSpaceOnUse" x1="19.8857" y1="25.9053" x2="29.5273" y2="25.9053">
	<stop  offset="0" style="stop-color:#66C42B"/>
	<stop  offset="1" style="stop-color:#305C1C"/>
</linearGradient>
<path fill="url(#SVGID_1_)" stroke="#006600" d="M20.1,21.2c0,0-2.3,8.3,9.5,9.5C29.5,30.7,28,20.1,20.1,21.2z"/>
<path opacity="0.3" fill="none" stroke="#FFFFFF" d="M28.3,29.5c-3.1-0.5-5.2-1.6-6.4-3.4c-1-1.5-1-3.1-0.9-4c0.1,0,0.2,0,0.3,0
	C25.7,22.1,27.6,27.1,28.3,29.5L28.3,29.5z"/>
<linearGradient id="SVGID_2_" gradientUnits="userSpaceOnUse" x1="25.7783" y1="18.2744" x2="40.8203" y2="23.3994">
	<stop  offset="0" style="stop-color:#66C42B"/>
	<stop  offset="1" style="stop-color:#305C1C"/>
</linearGradient>
<path fill="url(#SVGID_2_)" stroke="#006600" d="M24.7,20.9c0,0,5.8,1.2,10.5,5c0,0-0.4-2.3-1.5-3.5c0,0,4.2-0.6,8.7,2.4
	c0,0-1.8-4.1-6.3-5c0,0,0.3-1.5,1.9-1.5c0,0-5.1-3.8-12.9,0.1L24.7,20.9z"/>
<g opacity="0.3">
	<path fill="#FFFFFF" d="M32,17.2c2.1,0,3.7,0.5,4.7,1c-0.7,0.4-1,1.2-1.1,1.6l-0.1,0.5l0.5,0.1c2.3,0.5,3.9,1.9,4.8,3.1
		c-2.6-1.3-4.9-1.5-6.2-1.5c-0.6,0-1,0-1,0l-1,0.1l0.7,0.7c0.5,0.5,0.8,1.2,1,1.8c-3.7-2.7-7.7-3.8-9.1-4.1l0.3-1.8
		C27.7,17.7,29.9,17.2,32,17.2 M32,18.2c-1.8,0-3.7,0.4-5.6,1.3l-0.1,0.4c1.1,0.3,2.6,0.8,4.3,1.6l1.8-0.3l1-0.1c0,0,0.4,0,0.9-0.1
		l0.2-0.9l0.1-0.5c0.1-0.3,0.2-0.7,0.4-1C34.2,18.3,33.2,18.2,32,18.2L32,18.2z"/>
</g>
<radialGradient id="SVGID_3_" cx="15.3066" cy="13.1011" r="13.7482" gradientUnits="userSpaceOnUse">
	<stop  offset="0" style="stop-color:#FFFFFF"/>
	<stop  offset="1" style="stop-color:#E6E6E6"/>
</radialGradient>
<path fill="url(#SVGID_3_)" stroke="#646464" d="M6.8,8c0,0,1.5-11.8,13.4-5.8c0,0,15.4-1.3,7.7,14.2c0,0-7.7,14.2-16.5,7.6
	c0,0-8,2.8-8-4.5C3.5,19.5-5.1,13.3,6.8,8z"/>
<path fill="#CC0033" d="M14.7,14c0,0-5.2,1.7-1.8,3.3c0,0-1.5,3.5,3,2.2c0,0,4.5,1.1,5.5-4.3c0,0-0.2-2.8-3.1-3.1
	C18.3,12,15.2,10.6,14.7,14z"/>
<g opacity="0.3">
	<path fill="#CC0033" d="M14.1,18.3C14.1,18.3,14.1,18.3,14.1,18.3c0-0.1,0-0.3,0.1-0.4l0.4-0.9l0.2-0.4l-0.4-0.2L13.7,16
		c0.4-0.2,0.9-0.5,1.5-0.7l0.6-0.2l0.3-0.1l0.1-0.3l0.1-0.6c0.2-1,0.5-1,0.8-1c0.4,0,0.7,0.1,0.7,0.2l0.2,0.1l0.1,0l0.1,0l0.2,0
		c1.3,0.1,1.6,1.1,1.7,1.6c-0.4,2-1.4,3-3,3c-0.4,0-0.6-0.1-0.6-0.1L16,17.9l-0.1,0l-0.1,0L15.5,18C14.9,18.2,14.5,18.3,14.1,18.3
		L14.1,18.3z"/>
	<path fill="#FFFFFF" d="M16.9,12.7c0.5,0,0.9,0.2,0.9,0.2L18,13l0.2,0c1.8,0.2,2.1,1.6,2.2,2.1c-0.4,2.3-1.6,3.5-3.5,3.5
		c-0.4,0-0.7-0.1-0.7-0.1l-0.3-0.1l-0.3,0.1c-0.6,0.2-1.1,0.3-1.5,0.3c-0.4,0-0.5-0.1-0.5-0.1c-0.1-0.1,0-0.6,0.1-1l0.4-0.9
		l-0.8-0.4c-0.3-0.1-0.4-0.2-0.5-0.3c0.3-0.3,1.3-0.9,2.2-1.2l0.6-0.2l0.1-0.6C15.9,12.9,16.4,12.7,16.9,12.7 M16.9,13.7
		c-0.1,0-0.1,0-0.1,0c0,0-0.1,0.1-0.2,0.6l-0.1,0.6l-0.1,0.6l-0.6,0.2l-0.6,0.2C15.1,15.9,15,16,14.8,16l0.6,0.3L15,17.2l-0.2,0.5
		c0.1,0,0.3-0.1,0.5-0.1l0.3-0.1l0.2-0.1l0.2,0.1l0.3,0.1c0,0,0.2,0,0.5,0c0.9,0,2-0.3,2.5-2.5c-0.1-0.5-0.4-1-1.3-1.1l-0.2,0
		l-0.2,0l-0.1-0.1l-0.2-0.1C17.4,13.8,17.1,13.7,16.9,13.7L16.9,13.7z M13.4,15.3L13.4,15.3L13.4,15.3L13.4,15.3z"/>
</g>
<g>
	<path fill="#FFCC00" d="M16.3,17.6c0,0-2.7-5.9-2.2-7.3c0.5-1.4,4.9,5,4.9,5S19.4,17.6,16.3,17.6z"/>
</g>
<g opacity="0.3">
	<path fill="#FFCC00" d="M17.2,16c-0.2-0.5-0.4-0.9-0.6-1.4c0.3,0.4,0.6,0.8,0.9,1.2c0,0,0,0.1,0,0.1C17.4,15.9,17.4,15.9,17.2,16
		L17.2,16z"/>
	<path fill="#FFFFFF" d="M15.3,12.1c0.8,0.9,1.9,2.3,2.8,3.6c0,0.1,0,0.4-0.2,0.5c-0.2,0.2-0.5,0.3-0.9,0.4
		C16.2,14.9,15.6,13.2,15.3,12.1"/>
</g>
<path fill="none" stroke="#CCCCCC" d="M7.8,8.7c0,0,1.9,4.1,4.5,5.4"/>
<path fill="none" stroke="#CCCCCC" d="M20.1,3.2c0,0-1,6-2,7.7"/>
<path fill="none" stroke="#CCCCCC" d="M28.8,11.4c0,0-5,0.8-6.6,3.3"/>
<line fill="none" stroke="#CCCCCC" x1="12.9" y1="20.4" x2="11.7" y2="22.8"/>
<path fill="none" stroke="#CCCCCC" d="M4.5,19c0,0,3.2-2.4,5.8-1.4"/>
<path opacity="0.5" fill="none" stroke="#FFFFFF" d="M16.3,24.7c-1.4,0-2.8-0.5-4.2-1.5l-0.4-0.3L11.2,23c0,0-1.4,0.5-2.9,0.5
	c-2.6,0-3.8-1.3-3.8-4V19l-0.4-0.3c0,0-2.8-2.1-2.6-4.5c0.2-1.8,2.2-3.6,5.7-5.2l0.5-0.2l0.1-0.6c0-0.3,1-6.6,6.4-6.6
	c1.6,0,3.5,0.5,5.6,1.6L20,3.2l0.3,0c0,0,0.3,0,0.8,0c1.7,0,5.7,0.3,7.3,2.9c1.3,2.1,0.9,5.4-1.3,9.8C27,16,22.2,24.7,16.3,24.7
	L16.3,24.7z"/>
<path opacity="0.5" fill="#FFFFFF" d="M21.1,2.7c-0.5,0-0.8,0-0.8,0l-0.1,0L20,2.7C17.8,1.6,15.9,1,14.2,1C8.4,1,7.4,7.8,7.3,8.1
	l0,0.3L7.1,8.5c-3.8,1.7-5.8,3.6-6,5.6c-0.2,2.2,1.7,4.1,2.5,4.7c3.4,0,8.5-0.8,12-5.3c3.4-4.3,9.6-5.5,14-5.7
	c-0.1-0.7-0.4-1.4-0.7-2C27,3,22.8,2.7,21.1,2.7z"/>
</svg>
